<?xml version="1.0" ?>
<!DOCTYPE svg  PUBLIC '-//W3C//DTD SVG 1.1//EN'  'http://www.w3.org/Graphics/SVG/1.1/DTD/svg11.dtd'>
<!-- Uploaded to: SVG Repo, www.svgrepo.com, Generator: SVG Repo Mixer Tools -->
<svg width="800px" height="800px" viewBox="0 0 13333.33 13333.33" style="shape-rendering:geometricPrecision; text-rendering:geometricPrecision; image-rendering:optimizeQuality; fill-rule:evenodd; clip-rule:evenodd" version="1.1" xml:space="preserve" xmlns="http://www.w3.org/2000/svg" xmlns:xlink="http://www.w3.org/1999/xlink" xmlns:xodm="http://www.corel.com/coreldraw/odm/2003">
<defs>
<style type="text/css">
   <![CDATA[
    .fil0 {fill:none}
    .fil1 {fill:#03A9F4}
    .fil3 {fill:#4FC3F7}
    .fil2 {fill:#FFFF66}
   ]]>
  </style>
</defs>
<g id="Layer_x0020_1">
<rect class="fil0" height="13333.33" width="13333.33" x="-0" y="-0.01"/>
<g id="_583280210624">
<path class="fil1" d="M9769.02 9877.6c-189.04,885.34 -978.36,1544.39 -1909,1544.39l-4074.63 0c-1075.36,0 -1952.04,-876.69 -1952.04,-1952.05l0 -4074.63c0,-1000.59 759.02,-1829.18 1730.86,-1939.56 188.27,-880.74 973.5,-1544.4 1909.13,-1544.4l4074.63 0c1075.36,0 1952.04,876.69 1952.04,1952.05l0 4074.63c0,1000.63 -759.08,1829.25 -1730.98,1939.57z"/>
<rect class="fil2" height="6205.68" rx="1065.52" ry="1065.52" width="6205.68" x="4407.8" y="2797.87"/>
<path class="fil3" d="M8838.56 9890.07c-163.82,378.67 -541.5,645.39 -978.54,645.39l-4074.63 0c-586.04,0 -1065.52,-479.48 -1065.52,-1065.52l0 -4074.63c0,-494.96 342.04,-913.91 801.42,-1032.17l0 3574.89c0,1075.35 876.69,1952.04 1952.04,1952.04l3365.24 0z"/>
</g>
</g>
</svg>